<svg id="Group_187502" data-name="Group 187502" xmlns="http://www.w3.org/2000/svg" width="102.219" height="120.045" viewBox="0 0 102.219 120.045">
  <path id="Path_186584" data-name="Path 186584" d="M72.938,969.528a51.041,51.041,0,0,1,73.9-62.141s8.473,4.322,0,10.13-64.353,53.077-64.353,53.077C75.056,978.253,72.938,969.528,72.938,969.528Z" transform="translate(-69.516 -900.098)" fill="#772bed"/>
  <path id="Path_186585" data-name="Path 186585" d="M129.517,955.4l-17.792-20.555s-4.318-5.872-10.189,0l-18.309,15.2s-5.642,3.766-2.357,7.468l25.182,25.182a4,4,0,0,0,5.659,0l19.429-19.429S134.565,960.241,129.517,955.4Z" transform="translate(-57.857 -863.82)" fill="#ff0078"/>
  <path id="Path_186586" data-name="Path 186586" d="M124.221,915.944c5.18-4.973,9.086.652,9.086.652,5.787,14.207,3.719,32.324-5.305,45.7,0,0-2.574,4.45-7.937-.913l-17.059-19.693s-5.233-4.341,0-7.913S124.221,915.944,124.221,915.944Z" transform="translate(-34.332 -884.527)" fill="#f7e011"/>
</svg>
