<svg xmlns="http://www.w3.org/2000/svg" width="337.735" height="120.046" viewBox="0 0 337.735 120.046">
  <g id="Secondary_Logo_White_" data-name="Secondary Logo (White)" transform="translate(-251.484 -774.099)">
    <g id="Group_187502" data-name="Group 187502" transform="translate(251.485 774.098)">
      <path id="Path_186584" data-name="Path 186584" d="M72.938,969.528a51.041,51.041,0,0,1,73.9-62.141s8.473,4.322,0,10.13-64.353,53.077-64.353,53.077C75.056,978.253,72.938,969.528,72.938,969.528Z" transform="translate(-69.516 -900.098)" fill="#772bed"/>
      <path id="Path_186585" data-name="Path 186585" d="M129.517,955.4l-17.792-20.555s-4.318-5.872-10.189,0l-18.309,15.2s-5.642,3.766-2.357,7.468l25.182,25.182a4,4,0,0,0,5.659,0l19.429-19.429S134.565,960.241,129.517,955.4Z" transform="translate(-57.857 -863.82)" fill="#ff0078"/>
      <path id="Path_186586" data-name="Path 186586" d="M124.221,915.944c5.18-4.973,9.086.652,9.086.652,5.787,14.207,3.719,32.324-5.305,45.7,0,0-2.574,4.45-7.937-.913l-17.059-19.693s-5.233-4.341,0-7.913S124.221,915.944,124.221,915.944Z" transform="translate(-34.332 -884.527)" fill="#f7e011"/>
    </g>
    <path id="Path_186596" data-name="Path 186596" d="M4.092,12.4V-34.224H13.02v14.756h-.992a20.08,20.08,0,0,1,2.015-8.556,12.816,12.816,0,0,1,4.991-5.363,14.223,14.223,0,0,1,7.254-1.829,15.521,15.521,0,0,1,6.386,1.271,14.082,14.082,0,0,1,4.9,3.6A16.12,16.12,0,0,1,40.7-24.862a21.276,21.276,0,0,1,1.085,6.944v1.488A23.412,23.412,0,0,1,40.8-9.455a16.09,16.09,0,0,1-2.976,5.58A13.423,13.423,0,0,1,32.953-.186a15.887,15.887,0,0,1-6.6,1.3A14.961,14.961,0,0,1,19.344-.465a11.5,11.5,0,0,1-4.8-4.774,17.373,17.373,0,0,1-1.891-8.029L15.376-9.92V12.4ZM22.94-8.184a6.886,6.886,0,0,0,3.937-1.147,7.679,7.679,0,0,0,2.666-3.193,10.812,10.812,0,0,0,.961-4.65,10.355,10.355,0,0,0-.961-4.619,7.437,7.437,0,0,0-2.635-3.038,7.134,7.134,0,0,0-3.968-1.085,8.064,8.064,0,0,0-3.813.93,7.44,7.44,0,0,0-2.883,2.728,8.07,8.07,0,0,0-1.116,4.34v2.108a7.074,7.074,0,0,0,1.178,4.123,7.831,7.831,0,0,0,2.976,2.6A8.1,8.1,0,0,0,22.94-8.184ZM69.006,0V-10.044h-1.86V-20.77a4.939,4.939,0,0,0-1.085-3.5A4.734,4.734,0,0,0,62.5-25.42q-1.178,0-3.472.062t-4.836.186q-2.542.124-4.65.248v-9.424q1.488-.124,3.534-.248t4.247-.186q2.2-.062,4.061-.062a23.114,23.114,0,0,1,8.959,1.55,11.9,11.9,0,0,1,5.642,4.65,14.534,14.534,0,0,1,1.953,7.874V0ZM58.156.868a14.938,14.938,0,0,1-6.386-1.3A10.211,10.211,0,0,1,47.4-4.185a10.568,10.568,0,0,1-1.581-5.859,9.239,9.239,0,0,1,2.046-6.231,11.833,11.833,0,0,1,5.642-3.5,27.834,27.834,0,0,1,8.246-1.116h6.634v5.828H61.752a5.016,5.016,0,0,0-3.534,1.147,3.979,3.979,0,0,0-1.24,3.069,3.9,3.9,0,0,0,1.24,3.007A5.016,5.016,0,0,0,61.752-6.7a6.248,6.248,0,0,0,2.635-.527,4.229,4.229,0,0,0,1.891-1.829,8.2,8.2,0,0,0,.868-3.6l2.6,2.48a14.55,14.55,0,0,1-1.705,5.983A9.458,9.458,0,0,1,64.2-.434,12.757,12.757,0,0,1,58.156.868ZM85.808,0V-34.224h8.928v14.88h-.124q0-7.192,3.007-11.284a10.08,10.08,0,0,1,8.649-4.092h1.364v9.672h-2.6A7.993,7.993,0,0,0,99.169-23a7.9,7.9,0,0,0-2.077,5.89V0Zm50.9,0L126.6-16h-4.588l13.392-18.228h11.78L134.478-17.05v-5.456L149.3,0Zm-24.3,0V-45.26H123.69V0Zm55.862,0V-34.224h11.284V0Zm-4.34-26.04v-8.184h15.624v8.184Zm8.959-10.912a5.874,5.874,0,0,1-4.526-1.581,5.757,5.757,0,0,1-1.457-4.061,5.74,5.74,0,0,1,1.464-4.061,5.834,5.834,0,0,1,4.488-1.581,5.814,5.814,0,0,1,4.526,1.581,5.832,5.832,0,0,1,1.426,4.061,5.832,5.832,0,0,1-1.426,4.061A5.77,5.77,0,0,1,172.887-36.952ZM204.476.5a23.865,23.865,0,0,1-8.9-1.364,8.821,8.821,0,0,1-4.805-4.526,20.382,20.382,0,0,1-1.488-8.556l.062-29.2h10.416L199.7-13.64a4.744,4.744,0,0,0,1.209,3.5,4.744,4.744,0,0,0,3.5,1.209h4.712V.5ZM184.326-26.04v-8.184h24.8v8.184Z" transform="translate(380.094 852.039)" fill="#fff"/>
  </g>
</svg>
